<svg width="155" height="60" viewBox="0 0 155 60" fill="none" xmlns="http://www.w3.org/2000/svg">
<g filter="url(#filter0_d)">
<mask id="path-1-inside-1" fill="white">
<path fill-rule="evenodd" clip-rule="evenodd" d="M138.152 3.01544C137.44 1.76914 136.114 1 134.679 1H6.89275C3.82146 1 1.89599 4.31793 3.41978 6.98456L14.866 27.0154C15.5687 28.2452 15.5687 29.7548 14.866 30.9846L3.41978 51.0154C1.89599 53.6821 3.82146 57 6.89275 57H134.679C136.114 57 137.44 56.2309 138.152 54.9846L151.866 30.9846C152.569 29.7548 152.569 28.2452 151.866 27.0154L138.152 3.01544Z"/>
</mask>
<path fill-rule="evenodd" clip-rule="evenodd" d="M138.152 3.01544C137.44 1.76914 136.114 1 134.679 1H6.89275C3.82146 1 1.89599 4.31793 3.41978 6.98456L14.866 27.0154C15.5687 28.2452 15.5687 29.7548 14.866 30.9846L3.41978 51.0154C1.89599 53.6821 3.82146 57 6.89275 57H134.679C136.114 57 137.44 56.2309 138.152 54.9846L151.866 30.9846C152.569 29.7548 152.569 28.2452 151.866 27.0154L138.152 3.01544Z" fill="white"/>
<path d="M14.866 27.0154L13.9978 27.5116L13.9978 27.5116L14.866 27.0154ZM14.866 30.9846L13.9978 30.4884L13.9978 30.4884L14.866 30.9846ZM151.866 30.9846L152.734 31.4807L152.734 31.4807L151.866 30.9846ZM151.866 27.0154L152.734 26.5193L152.734 26.5193L151.866 27.0154ZM138.152 3.01544L139.02 2.51931L138.152 3.01544ZM138.152 54.9846L139.02 55.4807L138.152 54.9846ZM6.89275 2H134.679V0H6.89275V2ZM15.7342 26.5193L4.28802 6.48842L2.55154 7.4807L13.9978 27.5116L15.7342 26.5193ZM15.7342 31.4807C16.6126 29.9435 16.6126 28.0565 15.7342 26.5193L13.9978 27.5116C14.5248 28.4339 14.5248 29.5661 13.9978 30.4884L15.7342 31.4807ZM4.28802 51.5116L15.7342 31.4807L13.9978 30.4884L2.55154 50.5193L4.28802 51.5116ZM134.679 56H6.89275V58H134.679V56ZM150.998 30.4884L137.283 54.4884L139.02 55.4807L152.734 31.4807L150.998 30.4884ZM150.998 27.5116C151.525 28.4339 151.525 29.5661 150.998 30.4884L152.734 31.4807C153.613 29.9435 153.613 28.0565 152.734 26.5193L150.998 27.5116ZM137.283 3.51158L150.998 27.5116L152.734 26.5193L139.02 2.51931L137.283 3.51158ZM2.55154 50.5193C0.646803 53.8526 3.05364 58 6.89275 58V56C4.58928 56 3.14518 53.5116 4.28802 51.5116L2.55154 50.5193ZM134.679 2C135.755 2 136.749 2.57686 137.283 3.51158L139.02 2.51931C138.13 0.961432 136.473 0 134.679 0V2ZM134.679 58C136.473 58 138.13 57.0386 139.02 55.4807L137.283 54.4884C136.749 55.4231 135.755 56 134.679 56V58ZM6.89275 0C3.05364 0 0.646803 4.14741 2.55154 7.4807L4.28802 6.48842C3.14518 4.48845 4.58928 2 6.89275 2V0Z" fill="#C1C9D2" mask="url(#path-1-inside-1)"/>
</g>
<defs>
<filter id="filter0_d" x="0.886841" y="0" width="153.506" height="60" filterUnits="userSpaceOnUse" color-interpolation-filters="sRGB">
<feFlood flood-opacity="0" result="BackgroundImageFix"/>
<feColorMatrix in="SourceAlpha" type="matrix" values="0 0 0 0 0 0 0 0 0 0 0 0 0 0 0 0 0 0 127 0"/>
<feOffset dy="1"/>
<feGaussianBlur stdDeviation="1"/>
<feColorMatrix type="matrix" values="0 0 0 0 0.215686 0 0 0 0 0.254902 0 0 0 0 0.317647 0 0 0 0.08 0"/>
<feBlend mode="normal" in2="BackgroundImageFix" result="effect1_dropShadow"/>
<feBlend mode="normal" in="SourceGraphic" in2="effect1_dropShadow" result="shape"/>
</filter>
</defs>
</svg>
